<svg xmlns="http://www.w3.org/2000/svg" xmlns:xlink="http://www.w3.org/1999/xlink" width="814" height="1080" viewBox="0 0 814 1080"><defs><style>.a,.j{fill:#abc5ff;}.b{clip-rule:evenodd;}.ab,.c,.f,.g,.h,.i,.j,.l,.m,.o,.q,.t,.u,.v,.x,.y{fill-rule:evenodd;}.d{clip-path:url(#a);}.e{fill:rgba(230,230,230,0.51);}.f{fill:#b3b3b3;}.g,.s{fill:#ccc;}.h{fill:#798cb5;}.i,.w{fill:#262623;}.k{clip-path:url(#b);}.l{fill:rgba(38,38,35,0.4);}.m{fill:none;}.n{clip-path:url(#c);}.o{fill:#2950af;}.p{clip-path:url(#d);}.q{fill:#08243b;}.r{fill:#e6e6e6;}.t{fill:#4c75cf;}.u{fill:#5786ed;}.v{fill:#d4492a;}.x{fill:#ff5833;}.y{fill:#92a8d9;}.z{clip-path:url(#e);}.aa{clip-path:url(#f);}.ab{fill:#f7f5f6;}</style><clipPath id="a"><rect class="a" width="814" height="1080"/></clipPath><clipPath id="b"><path class="b" d="M9881.917,3523.82c1.5,8.976,3.407,19.577,4.224,30.1s.544,20.966.511,28.474.17,12.082,6.143,15.5,17.713,5.666,30.853,5.87a185.107,185.107,0,0,0,35.734-3.277c8.054-1.638,9.624-3.072,10.512-6.45s1.093-8.7.99-14.368-.512-11.672-.65-17.562a60.74,60.74,0,0,1,2.453-20.186c2.46-8.526,7.244-19.805,3.895-29.241s-14.838-17.027-30.335-19.969-35-1.235-47.009.78-16.51,4.335-18.215,9.171-.605,12.186.9,21.163Z" transform="translate(-9880.159 -3491.128)"/></clipPath><clipPath id="c"><path class="b" d="M9383.294,863.691c49.478,79.959,105.667,27.158,121.115-45.49a273.445,273.445,0,0,0,5.293-37.825c.883-13.179.675-26.358-2.18-37.306s-8.354-19.665-21.481-25.528-33.881-8.873-53.91-8.094-39.329,5.344-51.47,17.434-17.123,31.7-17.2,52.329c-.082,23,7.373,64.346,19.831,84.481Z" transform="translate(-9363.462 -709.325)"/></clipPath><clipPath id="d"><path class="b" d="M5931.749,5258.161c-1.366,2.065-3.352,7.421-8.506,11.748s-13.476,7.625-22.269,9a71.3,71.3,0,0,1-26.339-1.06c-8.283-1.884-15.584-5.1-19.889-8.362s-5.612-6.556-8.439-4.358-7.17,9.893-11.814,16.331a77.141,77.141,0,0,1-14.865,15.758c-5.274,4.139-10.875,7.235-18.416,10.9a289.008,289.008,0,0,1-27.719,11.8c-10.7,3.882-22.616,7.4-31.013,10.924s-13.272,7.042-16.185,10.39-3.864,6.52-8.012,35.513-11.5,83.808-16.78,121.6-8.509,58.575-10.659,69.321-3.225,11.464-8.538,14.628-14.867,8.778-15.644,13.017,7.225,7.1,15.046,12.061,15.464,12,18.509,17.732,1.492,10.15,1.254,12.419.835,2.389,6.866,2.448,17.016.06,24.778-.6,12.3-1.97,15.882-4.358,6.208-5.852,8.9-15.167,5.433-24.479,6.965-30.835,1.85-3.905,2.245,5.454.87,25.626,22.505,33.048,64.434,6,106.679,5.291,83.938-.71,104.863-4.342,21.084-10.9,21.636-27.954,1.5-43.9,2.053-57.328.71-13.424,4.343-5.448,10.738,23.926,14.055,32.138,2.842,8.687-.71,9.871-10.186,3.08-13.661,4.264-3.789,1.658-4.106,10.265-.631,25.347-.416,33.771.965,8.529,7.389,8.943,18.524,1.136,32.831,1.841,30.823,1.392,40.753,1.5,13.277-.373,16.521-2.387a23.532,23.532,0,0,0,8.363-9.765,30.085,30.085,0,0,0,2.6-14.065c-.205-5.019-1.434-10.208-12.676-47.644s-32.5-107.119-44.3-148.085-14.162-53.215-16.2-62.167-3.769-14.605-6.478-19.435a28.107,28.107,0,0,0-11.662-11.582c-5.26-2.749-12.092-4.24-17.045-5.332s-8.029-1.783-19.1-6.375-30.129-13.082-41.233-18.16-14.251-6.739-16.953-9.471a35.844,35.844,0,0,1-6.974-11.262c-2.017-4.731-3.792-10.392-5.052-13.835s-2.007-4.668-3.373-2.6Z" transform="translate(-5666.61 -5257.15)"/></clipPath><clipPath id="e"><path class="b" d="M4832.505,13320.319c-.216-1.217-.1-3.26,1.2-8.658s3.77-14.154,5.6-19.828,3-8.265,4.417-9.776,3.063-1.943,5.281-2.316,5.005-.687,7.027-1.179,3.278-1.157,4.556-1.313a6.738,6.738,0,0,1,3.513.627,10.772,10.772,0,0,0,8.8,1.118c1.806-.647,2.983-2.1,4.946-2.866a11.912,11.912,0,0,1,6.95-.235c2.238.61,3.965,1.9,6.576,3.455a94.821,94.821,0,0,1,8.442,5.145,11.666,11.666,0,0,1,4.318,5.889c.805,2.336,1.237,5.242,2.4,8.266a54.213,54.213,0,0,0,4.908,9.108c1.866,2.944,3.71,5.693,3.907,8.422a10.354,10.354,0,0,1-2.925,7.283,10.758,10.758,0,0,1-6.243,3.4c-2.69.567-6.184.727-8.972,1.51s-4.869,2.2-6.38,2.611-2.454-.176-2.964-2.061a20.537,20.537,0,0,1-.255-7.225c.333-2.159,1.079-3.3,1.59-4.947a19.112,19.112,0,0,0,.687-6.262,15.033,15.033,0,0,0-2.022-7.48,13.371,13.371,0,0,0-5.517-4.751c-1.629-.667-2.454-.2-3.416,1.061a32.1,32.1,0,0,0-3.259,5.968c-1.2,2.671-2.493,5.969-3.828,8.266a10.129,10.129,0,0,1-3.985,4.22,5.721,5.721,0,0,1-3.729.373,9.42,9.42,0,0,1-3.416-1.138c-.766-.53-.923-1.2-.747-4.083s.687-7.99,1.04-11.132.55-4.318.334-5.045-.844-1-2.042-.706a8.135,8.135,0,0,0-4.5,3.239c-1.531,2.079-2.827,5.379-4.457,9.01a75.017,75.017,0,0,1-5.3,10.13c-1.708,2.533-3.161,3.633-4.986,4.045a12.851,12.851,0,0,1-5.4-.2c-1.374-.333-1.924-.726-2.14-1.942Z" transform="translate(-4832.419 -13275.487)"/></clipPath><clipPath id="f"><path class="b" d="M5507.635,13278.754a85.419,85.419,0,0,1-5.167,8c-2.276,2.834-3.807,2.873-4.9,4.912a37.789,37.789,0,0,0-2.008,6.346c-.049.8-.2,1.957-.407,3.779-.354,3.141-.863,8.244-1.04,11.131a21.514,21.514,0,0,0-.054,2.238c1.072,1.955,2.706,1.521,4.5.383a19.461,19.461,0,0,0,6.152-6.855c2.181-3.67,4.466-9.018,6.569-13.172a103.076,103.076,0,0,1,5.837-9.932c1.813-2.818,3.517-5.494,6.707-5.27s7.868,3.355,10.486,5.883,3.179,4.457,4.119,7.318a80.609,80.609,0,0,0,3.716,9.641,19.02,19.02,0,0,0,4.357,6.193c.06.049.118.092.176.135-.355-.568-.724-1.143-1.092-1.727a54.167,54.167,0,0,1-4.908-9.107c-1.159-3.023-1.591-5.93-2.4-8.266a11.656,11.656,0,0,0-4.318-5.889,94.513,94.513,0,0,0-8.441-5.145c-2.611-1.551-4.339-2.846-6.577-3.455a11.9,11.9,0,0,0-6.95.236C5510.251,13276.816,5509.128,13278.035,5507.635,13278.754Z" transform="translate(-5494.045 -13275.496)"/></clipPath></defs><g class="d"><g transform="translate(-60 278.506)"><path class="e" d="M467.2,0c258.03,0,467.2,7.794,467.2,17.409s226.168,306.734-444.191,291.38S0,27.023,0,17.409,209.174,0,467.2,0Z" transform="translate(0 593.96)"/><path class="f" d="M5987.176,13858.809a87.754,87.754,0,0,0,14.2-2.9,26.249,26.249,0,0,0,9.578-4.733c2.508-1.931,5.11-4.375,5.827-6.468s-.449-3.831-4.657-8-11.457-10.765-15.319-14.182-4.341-3.656-5.473,1.334a168.6,168.6,0,0,0-3.31,21.579,31.632,31.632,0,0,0,.785,10.159c.17,1.278-.5,1.323-1.612,1.848s-2.683,1.53-.021,1.36Z" transform="translate(-5737.227 -13246.31)"/><path class="g" d="M4827.939,13673.146a43.118,43.118,0,0,1,2.252-18.812c2.647-7.47,7.786-14.819,13.28-19.05s11.342-5.335,18.338-5.02,15.137,2.056,20.038,4.506,6.56,5.612,7.777,6.606,1.99-.175-.3,1.764-7.651,6.986-9.216,13.24.665,13.717.709,17.338-2.1,3.4-10.759,3.265-23.848-.187-32.073-.176-9.49.093-10.043-3.663Z" transform="translate(-4627.269 -13064.374)"/><path class="h" d="M4678.094,13650.038c-.813-.5-3.751.769-6.055,2.485a31.946,31.946,0,0,0-5.242,5.378c-1.266,1.492-2.125,2.306-2.8,3.029s-1.175,1.354-1.266,4.247.227,8.044.588,12.157.768,7.185.9,9.648,0,4.315,1,5.332a4.838,4.838,0,0,0,4.338.813c1.221-.384,1.537-1.332,2.238-4.9s1.785-9.761,2.6-15.726,1.356-11.7,2.282-15.7,2.237-6.258,1.423-6.756Z" transform="translate(-4469.15 -13083.271)"/><path class="i" d="M12442.7,3377.387a54.811,54.811,0,0,1-8.8,13.1c-4.06,4.386-9.012,7.848-11.877,8.624s-3.641-1.134-2.686-5.64a105.992,105.992,0,0,1,5.356-15.671c1.717-4.063,2.462-5.088,5.565-5.714s8.564-.856,11.294-.225S12444.278,3373.986,12442.7,3377.387Z" transform="translate(-11903.396 -3231.519)"/><path class="i" d="M8743.3,467.866a53.857,53.857,0,0,0-15.621,8.407,60.653,60.653,0,0,0-15.05,17.748c-4.1,7.214-7.006,15.518-8.874,26.519a126.136,126.136,0,0,0-.676,38.559c2.024,13.856,6.9,27.868,9.965,39.96a127.4,127.4,0,0,1,4.2,34.252c-.1,11.988-1.557,25.792-6.175,43.437s-12.4,39.13-16.5,51.066-4.515,14.324,5.188,12.3,29.53-8.459,43.179-18.839,21.122-24.7,25.793-39.856,6.538-31.139,6.383-52.779A481.211,481.211,0,0,0,8769.3,559c-3.477-20.707-8.252-34.823-11.312-48.368s-4.412-26.519-5.294-33.732-1.3-8.667-2.438-9.445-3.011-.882-6.955.416Z" transform="translate(-8331.003 -447.487)"/><path class="j" d="M9881.917,3523.82c1.5,8.976,3.407,19.577,4.224,30.1s.544,20.966.511,28.474.17,12.082,6.143,15.5,17.713,5.666,30.853,5.87a185.107,185.107,0,0,0,35.734-3.277c8.054-1.638,9.624-3.072,10.512-6.45s1.093-8.7.99-14.368-.512-11.672-.65-17.562a60.74,60.74,0,0,1,2.453-20.186c2.46-8.526,7.244-19.805,3.895-29.241s-14.838-17.027-30.335-19.969-35-1.235-47.009.78-16.51,4.335-18.215,9.171-.605,12.186.9,21.163Z" transform="translate(-9470.002 -3346.194)"/><g class="k" transform="translate(410.156 144.934)"><g transform="translate(10.592 27.393)"><path class="l" d="M10135.313,4175.215c-.148,3.1,1.758,8.876,5.809,14.536a62.214,62.214,0,0,0,16.175,15.012c5.927,3.813,11.587,5.9,15.518,8.43a22.43,22.43,0,0,1,7.954,8.907c1.817,3.4,3.247,7.208,8.757,8.846s15.1,1.1,21.834-2.771,10.6-11.081,12.778-18.944,2.651-16.384,1.312-26.511-4.5-21.864-8.758-27.434-9.621-4.975-18.5-2.442-21.269,7-31.574,10.4-18.527,5.72-23.741,7.09S10135.462,4172.117,10135.313,4175.215Z" transform="translate(-10135.306 -4150.986)"/></g></g><path class="m" d="M9881.917,3523.82c1.5,8.976,3.407,19.577,4.224,30.1s.544,20.966.511,28.474.17,12.082,6.143,15.5,17.713,5.666,30.853,5.87a185.107,185.107,0,0,0,35.734-3.277c8.054-1.638,9.624-3.072,10.512-6.45s1.093-8.7.99-14.368-.512-11.672-.65-17.562a60.74,60.74,0,0,1,2.453-20.186c2.46-8.526,7.244-19.805,3.895-29.241s-14.838-17.027-30.335-19.969-35-1.235-47.009.78-16.51,4.335-18.215,9.171-.605,12.186.9,21.163Z" transform="translate(-9470.002 -3346.194)"/><path class="j" d="M9074.218,2630.465c-.749.648-1.091,2.216-1.618,3.085s-1.245,1.039-2.25.46a9.707,9.707,0,0,1-3.34-3.919c-1.039-2.011-1.824-4.7-3.341-9.2s-3.766-10.8-5.606-16.5a111.143,111.143,0,0,1-3.748-13.718c-.477-2.949,0-3.766.8-4.26a5.63,5.63,0,0,1,2.794-.665c.869,0,1.483.171,2.693,2.556a113.737,113.737,0,0,1,4.5,11.178c1.482,4.192,2.642,7.975,3.442,10.446a44.452,44.452,0,0,0,1.516,4.226c.273.6.375.631.954-.784s1.637-4.277,2.625-3.425,1.908,5.419,2.557,9.2,1.021,6.782,1.158,8.521.035,2.215-.6,2.318S9074.969,2629.818,9074.218,2630.465Z" transform="translate(-8678.26 -2478.401)"/><path class="h" d="M12634.378,2445.522c.963.573,1.3,2.141,1.832,3.01s1.244,1.039,2.249.46a8.243,8.243,0,0,0,3.126-3.844c.826-1.937,1.183-4.48,2.486-8.9s3.553-10.729,5.394-16.421a111.131,111.131,0,0,0,3.748-13.718c.477-2.949,0-3.766-.8-4.26a5.633,5.633,0,0,0-2.795-.665c-.868,0-1.481.171-2.692,2.556s-3.017,6.986-4.594,10.946-2.932,7.278-3.732,9.749a38.292,38.292,0,0,0-1.227,4.923c-.177.829-.279.863-.858-.551s-1.636-4.277-2.624-3.425-1.909,5.419-2.558,9.2-1.021,6.782-1.157,8.521-.035,2.215.809,2.243,2.431-.395,3.394.178Z" transform="translate(-12105.808 -2301.493)"/><path class="j" d="M9383.294,863.691c49.478,79.959,105.667,27.158,121.115-45.49a273.445,273.445,0,0,0,5.293-37.825c.883-13.179.675-26.358-2.18-37.306s-8.354-19.665-21.481-25.528-33.881-8.873-53.91-8.094-39.329,5.344-51.47,17.434-17.123,31.7-17.2,52.329c-.082,23,7.373,64.346,19.831,84.481Z" transform="translate(-8974.756 -679.872)"/><g class="n" transform="translate(388.707 29.453)"><g transform="translate(12.283 72.558)"><path class="l" d="M9728.244,2476.752a18.188,18.188,0,0,1,6.914-8.677c3.8-2.546,9.363-4.31,15.4-4.857a48.513,48.513,0,0,1,16.1,1.176c3.565,1.057,4.192,2.506,4.329,4.446s-.216,4.368.2,6.483a10.893,10.893,0,0,0,3.192,5.543c1.606,1.626,3.644,3.075,4.113,5.347s-.626,5.366-3.074,8.618a24.884,24.884,0,0,1-10.853,8.344,30.46,30.46,0,0,1-13.627,1.172,20.074,20.074,0,0,1-7.254-2.273,18.839,18.839,0,0,1-6.371-4.769,59.8,59.8,0,0,1-8.42-11.79c-1.838-3.69-1.721-5.962-.644-8.763Zm-66.794-13.771c3.182.315,10.39-.451,18.047.18a90.545,90.545,0,0,1,20.16,4.189c4.393,1.531,5.067,2.568,5.136,7.186s-.473,12.816-.451,16.646.608,3.288,2.434,1.4,4.889-5.136,7.815-6.713a9.476,9.476,0,0,1,8.357-.45,21.911,21.911,0,0,1,7.545,5.586c2.433,2.567,4.819,5.72,7.771,8.807a43.885,43.885,0,0,0,11.172,8.627c4.708,2.523,10.609,4.55,14.009,7.823s4.3,7.793,2.816,14.846-5.336,16.64-9.4,23.883a71.114,71.114,0,0,1-13.86,17.454c-5.521,5.314-12.3,11.046-9.638,11.514s14.744-4.324,26.207-11.671,22.3-17.246,28.761-30.063,8.545-28.552,7.935-42.695-3.917-26.693-8.928-33.653-11.724-8.331-19.536-8.639a114.191,114.191,0,0,0-24.083,1.816c-7.366,1.37-13.189,3.357-18.534,4.248a43.333,43.333,0,0,1-15.039-.17c-4.831-.857-9.626-2.365-16.237-3.427a132.914,132.914,0,0,0-21-1.575c-5.961.1-9.455.925-11.625,2.034S9658.269,2462.666,9661.45,2462.981Z" transform="translate(-9659.352 -2457.168)"/></g></g><path class="m" d="M9383.294,863.691c49.478,79.959,105.667,27.158,121.115-45.49a273.445,273.445,0,0,0,5.293-37.825c.883-13.179.675-26.358-2.18-37.306s-8.354-19.665-21.481-25.528-33.881-8.873-53.91-8.094-39.329,5.344-51.47,17.434-17.123,31.7-17.2,52.329c-.082,23,7.373,64.346,19.831,84.481Z" transform="translate(-8974.756 -679.872)"/><path class="l" d="M12160.354,1442.877c2.285,3.687,8.257,9.162,10.384,14.456s.407,10.407-.271,13.01-.316,2.7,1,3.036a16.853,16.853,0,0,1,5.361,2.167c1.787,1.243,3.1,3.143,6.335,2.442s8.393-4,10.7-11.673,1.765-19.705-1.968-27.012a17.621,17.621,0,0,0-16.356-9.75c-5.7.135-10.18,2.986-13.121,5.362s-4.344,4.275-2.059,7.963Z" transform="translate(-11654.45 -1370.196)"/><path class="i" d="M9727.014,57.761a31.185,31.185,0,0,0,6.677,9.527,63.028,63.028,0,0,0,13.4,10.333,73.98,73.98,0,0,0,20.035,7.9,116.581,116.581,0,0,0,25.134,2.842,84.834,84.834,0,0,0,24.412-2.842,93.382,93.382,0,0,0,19.493-8.573c4.692-2.663,6.949-4.287,9.25-4.512a5.746,5.746,0,0,1,5.82,3.474c1.174,2.527,1.174,6.407,1.3,15.919s.375,24.653.512,32.157.162,7.37.895,4.989,2.172-7.011,3.931-11.853a101.323,101.323,0,0,1,5.322-12.558c1.489-2.663,2.392-2.933,3.2-2.388s1.519,1.906,2.377,2.222,1.859-.414,1.91-6.148a200.141,200.141,0,0,0-2.3-26.221c-1.443-9.747-3.429-18.5-6.992-26.352A60.938,60.938,0,0,0,9845.6,24.691a82.187,82.187,0,0,0-27.615-15.567A142.6,142.6,0,0,0,9780.3,2.039c-12.183-.587-22.561.768-30.051,3.114s-12.094,5.685-14.846,8.844-3.655,6.136-5.143,11.861a195.042,195.042,0,0,0-4.329,19.972c-.767,5.775-.229,8.856,1.079,11.93Z" transform="translate(-9321.843 -1.818)"/><path class="i" d="M9333.2,2405.563c3.516-.068,8.771,0,14.094-.068a168.246,168.246,0,0,1,17.335.273,172.706,172.706,0,0,1,19.008,2.8c4.539.956,5.769,1.57,8.873,1.946a54.545,54.545,0,0,0,12.046,0c3.959-.512,6.894-1.672,11.7-2.9a120.818,120.818,0,0,1,18.394-3.139,107.173,107.173,0,0,1,20.168.1c6.177.648,11.432,1.877,13.81,2.933s1.879,1.938,1.657,4.056-.165,5.471-.428,7.214-.842,1.875-1.542,3.237-1.519,3.957-3.021,7.745a91.46,91.46,0,0,1-6.178,12.9,32.379,32.379,0,0,1-8.394,9.657,22.168,22.168,0,0,1-10.237,3.993,35.241,35.241,0,0,1-11.227-.376,24.381,24.381,0,0,1-9.078-3.617,35.185,35.185,0,0,1-7-6.45,31.722,31.722,0,0,1-4.743-7.2,71.227,71.227,0,0,1-3.173-8.463c-.785-2.457-1.264-4.1-2.253-5.289a7.035,7.035,0,0,0-3.686-2.218,2.933,2.933,0,0,0-2.9.683c-.819.751-1.571,2.047-2.628,4.845s-2.423,7.1-3.823,10.613a30.639,30.639,0,0,1-4.913,8.736,28.906,28.906,0,0,1-7.747,6.415,26.75,26.75,0,0,1-9.657,3.277,39.72,39.72,0,0,1-11.022-.069,19.147,19.147,0,0,1-8.633-3.208,28.758,28.758,0,0,1-6.552-7.3,62.139,62.139,0,0,1-5.8-10.306,89.461,89.461,0,0,1-3.412-10c-.717-2.389-1.058-3.276-1.775-3.787s-1.809-.649-2.593-1.912-1.263-3.651-1.5-6.278-.239-5.494.647-7.03S9329.681,2405.632,9333.2,2405.563Zm20.2,3.174c-5.631.716-10.407,2.491-13.07,4.88s-3.207,5.391-3.036,9.146a37.782,37.782,0,0,0,11.943,25.423,21.885,21.885,0,0,0,12.284,5.426,22.172,22.172,0,0,0,12.218-2.457,25.783,25.783,0,0,0,9.589-8.7,48.187,48.187,0,0,0,5.937-12.933c1.16-4.027,1.366-7.1.444-9.828a12.711,12.711,0,0,0-6.109-6.893c-3.14-1.775-7.37-2.936-12.728-3.686A69.366,69.366,0,0,0,9353.4,2408.738Zm72.48.341c-3.651,1.126-9.315,3.037-12.592,5.153a8,8,0,0,0-4.129,7.712,33.644,33.644,0,0,0,2.832,11.944,46.7,46.7,0,0,0,7.337,12.217,15.98,15.98,0,0,0,9.794,5.6,36.277,36.277,0,0,0,14.094-.205c4.2-1.024,6.928-3.071,9.589-6.585a55.47,55.47,0,0,0,6.859-12.7,27.119,27.119,0,0,0,2.116-10.646,12.451,12.451,0,0,0-2.73-7.849c-1.809-2.15-4.606-3.789-9.146-4.778a78.642,78.642,0,0,0-14.775-1.331A25.4,25.4,0,0,0,9425.878,2409.079Z" transform="translate(-8939.074 -2304.241)"/><path class="o" d="M5931.749,5258.161c-1.366,2.065-3.352,7.421-8.506,11.748s-13.476,7.625-22.269,9a71.3,71.3,0,0,1-26.339-1.06c-8.283-1.884-15.584-5.1-19.889-8.362s-5.612-6.556-8.439-4.358-7.17,9.893-11.814,16.331a77.141,77.141,0,0,1-14.865,15.758c-5.274,4.139-10.875,7.235-18.416,10.9a289.008,289.008,0,0,1-27.719,11.8c-10.7,3.882-22.616,7.4-31.013,10.924s-13.272,7.042-16.185,10.39-3.864,6.52-8.012,35.513-11.5,83.808-16.78,121.6-8.509,58.575-10.659,69.321-3.225,11.464-8.538,14.628-14.867,8.778-15.644,13.017,7.225,7.1,15.046,12.061,15.464,12,18.509,17.732,1.492,10.15,1.254,12.419.835,2.389,6.866,2.448,17.016.06,24.778-.6,12.3-1.97,15.882-4.358,6.208-5.852,8.9-15.167,5.433-24.479,6.965-30.835,1.85-3.905,2.245,5.454.87,25.626,22.505,33.048,64.434,6,106.679,5.291,83.938-.71,104.863-4.342,21.084-10.9,21.636-27.954,1.5-43.9,2.053-57.328.71-13.424,4.343-5.448,10.738,23.926,14.055,32.138,2.842,8.687-.71,9.871-10.186,3.08-13.661,4.264-3.789,1.658-4.106,10.265-.631,25.347-.416,33.771.965,8.529,7.389,8.943,18.524,1.136,32.831,1.841,30.823,1.392,40.753,1.5,13.277-.373,16.521-2.387a23.532,23.532,0,0,0,8.363-9.765,30.085,30.085,0,0,0,2.6-14.065c-.205-5.019-1.434-10.208-12.676-47.644s-32.5-107.119-44.3-148.085-14.162-53.215-16.2-62.167-3.769-14.605-6.478-19.435a28.107,28.107,0,0,0-11.662-11.582c-5.26-2.749-12.092-4.24-17.045-5.332s-8.029-1.783-19.1-6.375-30.129-13.082-41.233-18.16-14.251-6.739-16.953-9.471a35.844,35.844,0,0,1-6.974-11.262c-2.017-4.731-3.792-10.392-5.052-13.835s-2.007-4.668-3.373-2.6Z" transform="translate(-5431.372 -5038.903)"/><g class="p" transform="translate(235.239 218.247)"><g transform="translate(8.625 -1.883)"><path class="q" d="M5921.124,7304.411c2.4,4.828,8.869,15.424,16.025,28.426a386.719,386.719,0,0,1,22.911,48.917,405.954,405.954,0,0,1,20.745,73.253c4.854,27.157,6.58,55.878,4.967,78.151s-6.568,38.1-15.443,50.275-21.672,20.709-39.7,24.493-41.28,2.822-50.775-1.376-5.229-11.627,1.927-17.062,17.2-8.875,22.223-12.041,5.022-6.054,3.646-9.494-4.128-7.43-5.78-10.665-2.2-5.71-1.169-8.6,3.646-6.192,6.055-10.939a42.861,42.861,0,0,0,4.815-18.094c.206-7.155-1.583-15.274-1.857-23.531s.963-16.649,3.646-22.084,6.811-7.912,11.077-9.425,8.669-2.064,11.353-3.854,3.646-4.815,2.132-24.562-5.5-56.21-8.562-81.454-5.186-39.264-7.081-46.744-3.559-8.418-1.157-3.59Z" transform="translate(-5874.366 -7214.686)"/><path class="q" d="M9352.653,5225.577c-7.806,3-12.538,5.908-15.451,9.184s-4,6.916-3.457,13.285,2.73,15.47,4,23.66,1.638,15.47.636,22.477a46.939,46.939,0,0,1-8.371,20.93c-5,7.188-12.648,14.833-19.384,22.932s-12.557,16.652-16.288,27.664-5.368,24.478-3,42.525,8.736,40.67,12.341,72.821,4.447,73.826,6.132,103.5,4.21,47.359,26.521,58.726,64.409,16.418,111.979,15.155,100.613-8.84,138.289-30.94,59.989-58.726,57.253-113.664-30.521-128.186-57.673-177.018-53.674-73.25-82.512-90.931-59.988-28.625-80.615-32.414-30.73-.42-41.222,2.8-21.373,6.3-29.179,9.3Z" transform="translate(-9148.433 -5211.794)"/></g></g><path class="m" d="M5931.749,5258.161c-1.366,2.065-3.352,7.421-8.506,11.748s-13.476,7.625-22.269,9a71.3,71.3,0,0,1-26.339-1.06c-8.283-1.884-15.584-5.1-19.889-8.362s-5.612-6.556-8.439-4.358-7.17,9.893-11.814,16.331a77.141,77.141,0,0,1-14.865,15.758c-5.274,4.139-10.875,7.235-18.416,10.9a289.008,289.008,0,0,1-27.719,11.8c-10.7,3.882-22.616,7.4-31.013,10.924s-13.272,7.042-16.185,10.39-3.864,6.52-8.012,35.513-11.5,83.808-16.78,121.6-8.509,58.575-10.659,69.321-3.225,11.464-8.538,14.628-14.867,8.778-15.644,13.017,7.225,7.1,15.046,12.061,15.464,12,18.509,17.732,1.492,10.15,1.254,12.419.835,2.389,6.866,2.448,17.016.06,24.778-.6,12.3-1.97,15.882-4.358,6.208-5.852,8.9-15.167,5.433-24.479,6.965-30.835,1.85-3.905,2.245,5.454.87,25.626,22.505,33.048,64.434,6,106.679,5.291,83.938-.71,104.863-4.342,21.084-10.9,21.636-27.954,1.5-43.9,2.053-57.328.71-13.424,4.343-5.448,10.738,23.926,14.055,32.138,2.842,8.687-.71,9.871-10.186,3.08-13.661,4.264-3.789,1.658-4.106,10.265-.631,25.347-.416,33.771.965,8.529,7.389,8.943,18.524,1.136,32.831,1.841,30.823,1.392,40.753,1.5,13.277-.373,16.521-2.387a23.532,23.532,0,0,0,8.363-9.765,30.085,30.085,0,0,0,2.6-14.065c-.205-5.019-1.434-10.208-12.676-47.644s-32.5-107.119-44.3-148.085-14.162-53.215-16.2-62.167-3.769-14.605-6.478-19.435a28.107,28.107,0,0,0-11.662-11.582c-5.26-2.749-12.092-4.24-17.045-5.332s-8.029-1.783-19.1-6.375-30.129-13.082-41.233-18.16-14.251-6.739-16.953-9.471a35.844,35.844,0,0,1-6.974-11.262c-2.017-4.731-3.792-10.392-5.052-13.835s-2.007-4.668-3.373-2.6Z" transform="translate(-5431.372 -5038.903)"/><path class="r" d="M10.083,0H260.1a10.083,10.083,0,0,1,10.083,10.083V177.3A10.083,10.083,0,0,1,260.1,187.382H10.083A10.083,10.083,0,0,1,0,177.3V10.083A10.083,10.083,0,0,1,10.083,0Z" transform="translate(330.557 413.495)"/><path class="f" d="M8042.367,14484.691h256.625a5.261,5.261,0,0,0,5.246-5.245v-5.246H8037.122v5.246a5.26,5.26,0,0,0,5.246,5.245Z" transform="translate(-7703.476 -13873.324)"/><path class="s" d="M10.083,0H257.008A10.083,10.083,0,0,1,267.09,10.083V171.275a10.083,10.083,0,0,1-10.083,10.083H10.083A10.083,10.083,0,0,1,0,171.275V10.083A10.083,10.083,0,0,1,10.083,0Z" transform="translate(333.645 419.519)"/><circle class="r" cx="31.71" cy="31.71" r="31.71" transform="translate(435.481 478.487)"/><path class="t" d="M10911,3663.117c.254.807,3,3.959,5.685,5.609a9.132,9.132,0,0,0,7.255,1.245c1.938-.55,3.183-1.8,3.561-4.476a35.22,35.22,0,0,0-.454-8.883c-.342-2.087-.537-2.146-.828-.774a33.406,33.406,0,0,1-1.5,6.052,5.261,5.261,0,0,1-3.718,3.259,9.8,9.8,0,0,1-5.866-.486c-2.151-.817-4.388-2.354-4.136-1.547Z" transform="translate(-10458.03 -3503.176)"/><path class="u" d="M10596.465,4364.116a78.491,78.491,0,0,0,6.318,6.694,8.646,8.646,0,0,0,6.349,2.912,74.5,74.5,0,0,0,12.217,0c3.359-.335,4.519-1,6.575-2.912a50.115,50.115,0,0,0,6.121-6.733c1.105-1.679.359-1.89-2.833-1.52a134.109,134.109,0,0,1-14.586,1.414,107.775,107.775,0,0,1-15.06-1.121,42.7,42.7,0,0,0-5.177-.525c-.735.015-1.2.15.074,1.791Z" transform="translate(-10155.807 -4181.224)"/><path class="t" d="M10507.008,4285.448c-3.836-.154-7.054-.284-10.156-.708a34.127,34.127,0,0,1-7.7-1.957,46.724,46.724,0,0,1-5.394-2.407c-1.08-.592-1.158-.8-1.055-.836s.385.089,1.506.231a39.743,39.743,0,0,0,5.1.271,23.054,23.054,0,0,0,5.729-.694c1.621-.464,2.78-1.185,4.08-1.4a6.6,6.6,0,0,1,4.08.759,3.95,3.95,0,0,0,7.62,0,6.6,6.6,0,0,1,4.08-.759c1.3.219,2.458.94,4.081,1.4a23.029,23.029,0,0,0,5.728.694,39.771,39.771,0,0,0,5.1-.271c1.119-.142,1.4-.27,1.5-.231s.026.244-1.055.836a46.809,46.809,0,0,1-5.394,2.407,34.113,34.113,0,0,1-7.7,1.957c-3.1.424-6.32.555-10.156.708Z" transform="translate(-10047.504 -4100.276)"/><path class="i" d="M11038.441,113.028c1.058.6,2.2,1.538,2.951,1.59s1.115-.778,1.531-4.2.882-9.442,1.141-17.2a164.2,164.2,0,0,0-.778-25.575,70.628,70.628,0,0,0-6.588-22.2c-3.269-6.718-7.573-13-17.877-18.959s-26.6-11.615-36-14.413-11.881-2.744-13.491-1.829-2.338,2.688-.095,5.558,7.461,6.834,9.965,10.747,2.295,7.774-1.826,9.131-12.156.209-19.408-3.078-13.723-8.714-15.234-13.879,1.931-10.069,1.9-13.476-3.535-5.317,3.333-5.233,24.109,2.16,36.8,4.725,20.822,5.618,28.072,9.492a69.725,69.725,0,0,1,18.727,14.152,58.161,58.161,0,0,1,11.948,20.348,108.236,108.236,0,0,1,5.739,29.583,229.8,229.8,0,0,1-.627,30.469c-.572,7.1-.99,9.078-2.035,10.226a4.8,4.8,0,0,1-4.069,1.3,4.921,4.921,0,0,1-3.527-2.267,14.147,14.147,0,0,1-2.465-4.861c-.119-1.034.856-.758,1.914-.154Z" transform="translate(-10488.099 0)"/><path class="v" d="M13220.184,2640.095l3.675.4a2.966,2.966,0,0,1,2.62,3.261l-3.543,32.467a2.965,2.965,0,0,1-3.26,2.619l-3.677-.4a2.965,2.965,0,0,1-2.619-3.26l3.543-32.468A2.965,2.965,0,0,1,13220.184,2640.095Z" transform="translate(-12664.835 -2530.473)"/><path class="w" d="M11437.532,3305.8l.041-.008a93.242,93.242,0,0,0,13.9-2.034c3.578-.751,8.124-1.818,12.876-3.257a81.942,81.942,0,0,0,13.7-5.357,45.286,45.286,0,0,0,10.61-7.54,43.3,43.3,0,0,0,7.4-9.44,57.136,57.136,0,0,0,4.306-9.333,74.272,74.272,0,0,0,3-10.891,44.015,44.015,0,0,0,.854-11.422l-.007-.058,1.983,0,1.738-.054,0,.054h.006l-.006,0a47.239,47.239,0,0,1-.913,12.18,78.345,78.345,0,0,1-3.161,11.458,60.886,60.886,0,0,1-4.583,9.945,46.978,46.978,0,0,1-8.038,10.242,49.021,49.021,0,0,1-11.484,8.165,85.486,85.486,0,0,1-14.324,5.62c-4.8,1.453-9.484,2.55-13.2,3.33a96.3,96.3,0,0,1-14.361,2.107l-.125-1.591-.209-2.116Z" transform="translate(-10962.725 -3111.625)"/><path class="x" d="M12884.218,2401l5.33.581a4.3,4.3,0,0,1,3.8,4.728l-5.136,47.075a4.3,4.3,0,0,1-4.729,3.8l-5.33-.581a4.3,4.3,0,0,1-3.8-4.728l5.137-47.075A4.3,4.3,0,0,1,12884.218,2401Z" transform="translate(-12339.875 -2301.301)"/><path class="i" d="M10999.038,4534.745l21.786-2.735,1.774,14.135-21.786,2.735a7.143,7.143,0,0,1-7.954-6.18h0a7.143,7.143,0,0,1,6.18-7.955Z" transform="translate(-10536.457 -4343.866)"/><path class="i" d="M9133.06,1044.417a11.8,11.8,0,0,0,2.8-6.095c.52-2.754.565-6.276,1.2-11.062s1.852-10.836,2.754-15.6,1.49-8.24,2.438-10.61,2.258-3.634,3.407-4.086,2.146-.091,3.478,1.377a71.245,71.245,0,0,0,5.485,6.343c2.482,2.3,5.779,4.334,10.972,2.1s12.28-8.737,12.8-13.906-5.53-9.007-12.393-10.632a35.5,35.5,0,0,0-20.5,1.332c-5.959,2.37-10.2,6.524-13.928,11.964a53.946,53.946,0,0,0-8.353,19.12,61.035,61.035,0,0,0-.406,19.3c.654,5.169,1.6,8.33,2.618,10.2s2.1,2.46,3.432,2.392A6.525,6.525,0,0,0,9133.06,1044.417Z" transform="translate(-8743.544 -940.585)"/><path class="x" d="M5289.769,14068.071a6.671,6.671,0,0,0-4.127.354,6.368,6.368,0,0,0-2.889,3.243,18.469,18.469,0,0,0-1.553,4.953c-.295,1.769-.334,3.577.275,4.639a2.449,2.449,0,0,0,3.105.923c1.238-.451,2.456-1.67,3.6-3.892a32.484,32.484,0,0,0,2.575-7.369C5291.125,14069,5290.811,14068.367,5289.769,14068.071Z" transform="translate(-5061.762 -13483.885)"/><path class="y" d="M4832.505,13320.319c-.216-1.217-.1-3.26,1.2-8.658s3.77-14.154,5.6-19.828,3-8.265,4.417-9.776,3.063-1.943,5.281-2.316,5.005-.687,7.027-1.179,3.278-1.157,4.556-1.313a6.738,6.738,0,0,1,3.513.627,10.772,10.772,0,0,0,8.8,1.118c1.806-.647,2.983-2.1,4.946-2.866a11.912,11.912,0,0,1,6.95-.235c2.238.61,3.965,1.9,6.576,3.455a94.821,94.821,0,0,1,8.442,5.145,11.666,11.666,0,0,1,4.318,5.889c.805,2.336,1.237,5.242,2.4,8.266a54.213,54.213,0,0,0,4.908,9.108c1.866,2.944,3.71,5.693,3.907,8.422a10.354,10.354,0,0,1-2.925,7.283,10.758,10.758,0,0,1-6.243,3.4c-2.69.567-6.184.727-8.972,1.51s-4.869,2.2-6.38,2.611-2.454-.176-2.964-2.061a20.537,20.537,0,0,1-.255-7.225c.333-2.159,1.079-3.3,1.59-4.947a19.112,19.112,0,0,0,.687-6.262,15.033,15.033,0,0,0-2.022-7.48,13.371,13.371,0,0,0-5.517-4.751c-1.629-.667-2.454-.2-3.416,1.061a32.1,32.1,0,0,0-3.259,5.968c-1.2,2.671-2.493,5.969-3.828,8.266a10.129,10.129,0,0,1-3.985,4.22,5.721,5.721,0,0,1-3.729.373,9.42,9.42,0,0,1-3.416-1.138c-.766-.53-.923-1.2-.747-4.083s.687-7.99,1.04-11.132.55-4.318.334-5.045-.844-1-2.042-.706a8.135,8.135,0,0,0-4.5,3.239c-1.531,2.079-2.827,5.379-4.457,9.01a75.017,75.017,0,0,1-5.3,10.13c-1.708,2.533-3.161,3.633-4.986,4.045a12.851,12.851,0,0,1-5.4-.2c-1.374-.333-1.924-.726-2.14-1.942Z" transform="translate(-4631.811 -12724.373)"/><g class="z" transform="translate(200.609 551.114)"><g transform="translate(-3.994 -8.732)"><path class="j" d="M4755.56,13330.4c2,1.064,3.765,3.609,3.531,8.126s-2.467,11.009-4.466,16.8-3.765,10.879-5.375,14.591-3.064,6.05-5.479,7.166-5.79,1.013-7.009-2.986-.286-11.892,1.35-18.8a84.325,84.325,0,0,1,5.92-16.851c1.947-4.023,3.5-6.153,5.4-7.426a5.853,5.853,0,0,1,6.127-.623Z" transform="translate(-4736.205 -13318.802)"/><path class="j" d="M5477.573,13072.522c-2.765,4.163-5.784,9.792-8.059,12.625s-3.807,2.874-4.9,4.914-1.755,6.082-2.612,8.183-1.912,2.259-2.231,4.89.1,7.734,1.162,10.078,2.778,1.929,4.673.727a19.466,19.466,0,0,0,6.152-6.856c2.181-3.668,4.466-9.016,6.568-13.171a103.189,103.189,0,0,1,5.837-9.932c1.813-2.818,3.517-5.5,6.707-5.27s7.867,3.355,10.485,5.883,3.179,4.457,4.119,7.318a80.4,80.4,0,0,0,3.716,9.641,19.024,19.024,0,0,0,4.357,6.193c1.3,1.04,2.29.951,3.825-2.235s3.613-9.47,1.9-16.168-7.218-13.813-13.5-18.278-13.346-6.284-18.132-5.843-7.3,3.139-10.064,7.3Z" transform="translate(-5429.63 -13065.156)"/></g><g class="aa" transform="translate(27.466 0)"><g transform="translate(-1.782 30.593)"><path class="ab" d="M5452.857,14012.476c1.368-.275,3.91.822,5.562,1.938s2.416,2.246,2.566,3.141-.31,1.55-1.262,2.7a27.3,27.3,0,0,1-3.456,3.62,2.1,2.1,0,0,1-2.548.414,4.283,4.283,0,0,1-2.223-2.62,16.4,16.4,0,0,1-.311-5.4c.112-1.869.3-3.521,1.671-3.8Z" transform="translate(-5451.113 -14012.433)"/></g></g><g class="z"><path class="m" d="M5477.573,13072.522c-2.765,4.163-5.784,9.792-8.059,12.625s-3.807,2.874-4.9,4.914-1.755,6.082-2.612,8.183-1.912,2.259-2.231,4.89.1,7.734,1.162,10.078,2.778,1.929,4.673.727a19.466,19.466,0,0,0,6.152-6.856c2.181-3.668,4.466-9.016,6.568-13.171a103.189,103.189,0,0,1,5.837-9.932c1.813-2.818,3.517-5.5,6.707-5.27s7.867,3.355,10.485,5.883,3.179,4.457,4.119,7.318a80.4,80.4,0,0,0,3.716,9.641,19.024,19.024,0,0,0,4.357,6.193c1.3,1.04,2.29.951,3.825-2.235s3.613-9.47,1.9-16.168-7.218-13.813-13.5-18.278-13.346-6.284-18.132-5.843-7.3,3.139-10.064,7.3Z" transform="translate(-5433.625 -13073.888)"/><path class="ab" d="M4771.84,14178.8c1.951-1.375,5.119-.648,6.833.395s1.973,2.4,1.39,4.157a11.787,11.787,0,0,1-3.64,5.154,5.69,5.69,0,0,1-4.828,1.2c-1.368-.38-2.274-1.478-2.358-3.767S4769.888,14180.177,4771.84,14178.8Z" transform="translate(-4771.854 -14140.576)"/><path class="h" d="M6042.271,13859.731c-1.629-.726-3.593-1.275-4.714-3.729s-1.4-6.808-2.274-5.883-2.347,7.133-5.917,11.1-9.237,5.706-12.7,7.137-4.728,2.558-6.281,5.025-3.4,6.279-1.711,9.048,6.912,4.5,14.048,3.262,16.184-5.436,20.465-9.834a11.143,11.143,0,0,0,2.9-11.748,6.225,6.225,0,0,0-3.817-4.381Z" transform="translate(-5959.198 -13826.145)"/><path class="ab" d="M6230.417,14294.622c-1.708-.085-4.372,1.008-5.909,1.725s-1.947,1.06-1.929,1.605a9.57,9.57,0,0,0,.9,2.356,15.559,15.559,0,0,1,1.076,3.825,17.625,17.625,0,0,1,.051,3.637c-.068.8-.137.974.956.325a42.963,42.963,0,0,0,4.73-3.279,6.468,6.468,0,0,0,2.306-3.228,9.274,9.274,0,0,0,.5-4.2C6232.875,14295.972,6232.124,14294.707,6230.417,14294.622Z" transform="translate(-6164.868 -14252.31)"/></g></g><path class="m" d="M4832.505,13320.319c-.216-1.217-.1-3.26,1.2-8.658s3.77-14.154,5.6-19.828,3-8.265,4.417-9.776,3.063-1.943,5.281-2.316,5.005-.687,7.027-1.179,3.278-1.157,4.556-1.313a6.738,6.738,0,0,1,3.513.627,10.772,10.772,0,0,0,8.8,1.118c1.806-.647,2.983-2.1,4.946-2.866a11.912,11.912,0,0,1,6.95-.235c2.238.61,3.965,1.9,6.576,3.455a94.821,94.821,0,0,1,8.442,5.145,11.666,11.666,0,0,1,4.318,5.889c.805,2.336,1.237,5.242,2.4,8.266a54.213,54.213,0,0,0,4.908,9.108c1.866,2.944,3.71,5.693,3.907,8.422a10.354,10.354,0,0,1-2.925,7.283,10.758,10.758,0,0,1-6.243,3.4c-2.69.567-6.184.727-8.972,1.51s-4.869,2.2-6.38,2.611-2.454-.176-2.964-2.061a20.537,20.537,0,0,1-.255-7.225c.333-2.159,1.079-3.3,1.59-4.947a19.112,19.112,0,0,0,.687-6.262,15.033,15.033,0,0,0-2.022-7.48,13.371,13.371,0,0,0-5.517-4.751c-1.629-.667-2.454-.2-3.416,1.061a32.1,32.1,0,0,0-3.259,5.968c-1.2,2.671-2.493,5.969-3.828,8.266a10.129,10.129,0,0,1-3.985,4.22,5.721,5.721,0,0,1-3.729.373,9.42,9.42,0,0,1-3.416-1.138c-.766-.53-.923-1.2-.747-4.083s.687-7.99,1.04-11.132.55-4.318.334-5.045-.844-1-2.042-.706a8.135,8.135,0,0,0-4.5,3.239c-1.531,2.079-2.827,5.379-4.457,9.01a75.017,75.017,0,0,1-5.3,10.13c-1.708,2.533-3.161,3.633-4.986,4.045a12.851,12.851,0,0,1-5.4-.2c-1.374-.333-1.924-.726-2.14-1.942Z" transform="translate(-4631.811 -12724.373)"/></g></g></svg>